<mxfile host="app.diagrams.net" modified="2022-12-21T12:56:46.235Z" agent="5.0 (Windows NT 10.0; Win64; x64) AppleWebKit/537.36 (KHTML, like Gecko) Chrome/108.0.0.0 Safari/537.36" etag="oibyEMTSL3CtlzPIdbRU" version="20.7.4" type="github">
  <diagram id="C5RBs43oDa-KdzZeNtuy" name="Page-1">
    <mxGraphModel dx="1147" dy="1831" grid="1" gridSize="10" guides="1" tooltips="1" connect="1" arrows="1" fold="1" page="1" pageScale="1" pageWidth="827" pageHeight="1169" math="0" shadow="0">
      <root>
        <mxCell id="WIyWlLk6GJQsqaUBKTNV-0" />
        <mxCell id="WIyWlLk6GJQsqaUBKTNV-1" parent="WIyWlLk6GJQsqaUBKTNV-0" />
        <mxCell id="zkfFHV4jXpPFQw0GAbJ--0" value="SSLFlowCreator" style="swimlane;fontStyle=1;align=center;verticalAlign=top;childLayout=stackLayout;horizontal=1;startSize=26;horizontalStack=0;resizeParent=1;resizeLast=0;collapsible=1;marginBottom=0;rounded=1;shadow=1;strokeWidth=1;swimlaneFillColor=default;glass=1;fillColor=#d5e8d4;strokeColor=#82b366;" parent="WIyWlLk6GJQsqaUBKTNV-1" vertex="1">
          <mxGeometry x="100" y="-50" width="190" height="100" as="geometry">
            <mxRectangle x="220" y="120" width="160" height="26" as="alternateBounds" />
          </mxGeometry>
        </mxCell>
        <mxCell id="zkfFHV4jXpPFQw0GAbJ--4" value="" style="line;html=1;strokeWidth=1;align=left;verticalAlign=middle;spacingTop=-1;spacingLeft=3;spacingRight=3;rotatable=0;labelPosition=right;points=[];portConstraint=eastwest;" parent="zkfFHV4jXpPFQw0GAbJ--0" vertex="1">
          <mxGeometry y="26" width="190" height="8" as="geometry" />
        </mxCell>
        <mxCell id="zkfFHV4jXpPFQw0GAbJ--5" value="create_flow()" style="text;align=left;verticalAlign=top;spacingLeft=4;spacingRight=4;overflow=hidden;rotatable=0;points=[[0,0.5],[1,0.5]];portConstraint=eastwest;" parent="zkfFHV4jXpPFQw0GAbJ--0" vertex="1">
          <mxGeometry y="34" width="190" height="26" as="geometry" />
        </mxCell>
        <mxCell id="KXzFWfe0HEiZLdzoKxse-3" value="NetworkArchFlowFactory" style="swimlane;fontStyle=1;align=center;verticalAlign=top;childLayout=stackLayout;horizontal=1;startSize=26;horizontalStack=0;resizeParent=1;resizeLast=0;collapsible=1;marginBottom=0;rounded=1;shadow=1;strokeWidth=1;swimlaneFillColor=default;glass=1;" vertex="1" parent="WIyWlLk6GJQsqaUBKTNV-1">
          <mxGeometry x="100" y="-200" width="190" height="100" as="geometry">
            <mxRectangle x="220" y="120" width="160" height="26" as="alternateBounds" />
          </mxGeometry>
        </mxCell>
        <mxCell id="KXzFWfe0HEiZLdzoKxse-7" value="" style="line;html=1;strokeWidth=1;align=left;verticalAlign=middle;spacingTop=-1;spacingLeft=3;spacingRight=3;rotatable=0;labelPosition=right;points=[];portConstraint=eastwest;" vertex="1" parent="KXzFWfe0HEiZLdzoKxse-3">
          <mxGeometry y="26" width="190" height="8" as="geometry" />
        </mxCell>
        <mxCell id="KXzFWfe0HEiZLdzoKxse-8" value="_get_ssl_flow_creator()" style="text;align=left;verticalAlign=top;spacingLeft=4;spacingRight=4;overflow=hidden;rotatable=0;points=[[0,0.5],[1,0.5]];portConstraint=eastwest;fontColor=#209246;" vertex="1" parent="KXzFWfe0HEiZLdzoKxse-3">
          <mxGeometry y="34" width="190" height="26" as="geometry" />
        </mxCell>
        <mxCell id="KXzFWfe0HEiZLdzoKxse-9" value="" style="endArrow=classic;html=1;rounded=0;" edge="1" parent="WIyWlLk6GJQsqaUBKTNV-1">
          <mxGeometry x="-1" y="-166" width="50" height="50" relative="1" as="geometry">
            <mxPoint x="194.6" y="-100" as="sourcePoint" />
            <mxPoint x="194.6" y="-50" as="targetPoint" />
            <mxPoint x="26" y="-90" as="offset" />
          </mxGeometry>
        </mxCell>
        <mxCell id="KXzFWfe0HEiZLdzoKxse-45" value="NetworkArchFlowOfflineFactory" style="swimlane;fontStyle=1;align=center;verticalAlign=top;childLayout=stackLayout;horizontal=1;startSize=26;horizontalStack=0;resizeParent=1;resizeLast=0;collapsible=1;marginBottom=0;rounded=1;shadow=1;strokeWidth=1;swimlaneFillColor=default;glass=1;" vertex="1" parent="WIyWlLk6GJQsqaUBKTNV-1">
          <mxGeometry x="360" y="1520" width="190" height="100" as="geometry">
            <mxRectangle x="220" y="120" width="160" height="26" as="alternateBounds" />
          </mxGeometry>
        </mxCell>
        <mxCell id="KXzFWfe0HEiZLdzoKxse-46" value="" style="line;html=1;strokeWidth=1;align=left;verticalAlign=middle;spacingTop=-1;spacingLeft=3;spacingRight=3;rotatable=0;labelPosition=right;points=[];portConstraint=eastwest;" vertex="1" parent="KXzFWfe0HEiZLdzoKxse-45">
          <mxGeometry y="26" width="190" height="8" as="geometry" />
        </mxCell>
        <mxCell id="KXzFWfe0HEiZLdzoKxse-84" value="_get_ssl_pretrain_flow_creator()" style="text;align=left;verticalAlign=top;spacingLeft=4;spacingRight=4;overflow=hidden;rotatable=0;points=[[0,0.5],[1,0.5]];portConstraint=eastwest;fontColor=#578b23;" vertex="1" parent="KXzFWfe0HEiZLdzoKxse-45">
          <mxGeometry y="34" width="190" height="26" as="geometry" />
        </mxCell>
        <mxCell id="KXzFWfe0HEiZLdzoKxse-49" value="NetworkArchFlowFactory" style="swimlane;fontStyle=1;align=center;verticalAlign=top;childLayout=stackLayout;horizontal=1;startSize=26;horizontalStack=0;resizeParent=1;resizeLast=0;collapsible=1;marginBottom=0;rounded=1;shadow=1;strokeWidth=1;swimlaneFillColor=default;glass=1;" vertex="1" parent="WIyWlLk6GJQsqaUBKTNV-1">
          <mxGeometry x="360" y="1370" width="190" height="100" as="geometry">
            <mxRectangle x="220" y="120" width="160" height="26" as="alternateBounds" />
          </mxGeometry>
        </mxCell>
        <mxCell id="KXzFWfe0HEiZLdzoKxse-50" value="" style="line;html=1;strokeWidth=1;align=left;verticalAlign=middle;spacingTop=-1;spacingLeft=3;spacingRight=3;rotatable=0;labelPosition=right;points=[];portConstraint=eastwest;" vertex="1" parent="KXzFWfe0HEiZLdzoKxse-49">
          <mxGeometry y="26" width="190" height="8" as="geometry" />
        </mxCell>
        <mxCell id="KXzFWfe0HEiZLdzoKxse-51" value="get_module_repository()&#xa;create_tasks_from_config()&#xa;" style="text;align=left;verticalAlign=top;spacingLeft=4;spacingRight=4;overflow=hidden;rotatable=0;points=[[0,0.5],[1,0.5]];portConstraint=eastwest;" vertex="1" parent="KXzFWfe0HEiZLdzoKxse-49">
          <mxGeometry y="34" width="190" height="66" as="geometry" />
        </mxCell>
        <mxCell id="KXzFWfe0HEiZLdzoKxse-52" value="" style="endArrow=classic;html=1;rounded=0;fontColor=#009C00;exitX=0.5;exitY=0;exitDx=0;exitDy=0;" edge="1" parent="WIyWlLk6GJQsqaUBKTNV-1" source="KXzFWfe0HEiZLdzoKxse-45">
          <mxGeometry width="50" height="50" relative="1" as="geometry">
            <mxPoint x="680" y="1540" as="sourcePoint" />
            <mxPoint x="455" y="1470" as="targetPoint" />
          </mxGeometry>
        </mxCell>
        <mxCell id="KXzFWfe0HEiZLdzoKxse-54" value="Network" style="swimlane;fontStyle=1;align=center;verticalAlign=top;childLayout=stackLayout;horizontal=1;startSize=26;horizontalStack=0;resizeParent=1;resizeLast=0;collapsible=1;marginBottom=0;rounded=1;shadow=1;strokeWidth=1;swimlaneFillColor=default;glass=1;" vertex="1" parent="WIyWlLk6GJQsqaUBKTNV-1">
          <mxGeometry x="50" y="1020" width="190" height="100" as="geometry">
            <mxRectangle x="220" y="120" width="160" height="26" as="alternateBounds" />
          </mxGeometry>
        </mxCell>
        <mxCell id="KXzFWfe0HEiZLdzoKxse-55" value="" style="line;html=1;strokeWidth=1;align=left;verticalAlign=middle;spacingTop=-1;spacingLeft=3;spacingRight=3;rotatable=0;labelPosition=right;points=[];portConstraint=eastwest;" vertex="1" parent="KXzFWfe0HEiZLdzoKxse-54">
          <mxGeometry y="26" width="190" height="8" as="geometry" />
        </mxCell>
        <mxCell id="KXzFWfe0HEiZLdzoKxse-57" value="INetwork" style="swimlane;fontStyle=1;align=center;verticalAlign=top;childLayout=stackLayout;horizontal=1;startSize=26;horizontalStack=0;resizeParent=1;resizeLast=0;collapsible=1;marginBottom=0;rounded=1;shadow=1;strokeWidth=1;swimlaneFillColor=default;glass=1;" vertex="1" parent="WIyWlLk6GJQsqaUBKTNV-1">
          <mxGeometry x="50" y="820" width="190" height="150" as="geometry">
            <mxRectangle x="220" y="120" width="160" height="26" as="alternateBounds" />
          </mxGeometry>
        </mxCell>
        <mxCell id="KXzFWfe0HEiZLdzoKxse-58" value="" style="line;html=1;strokeWidth=1;align=left;verticalAlign=middle;spacingTop=-1;spacingLeft=3;spacingRight=3;rotatable=0;labelPosition=right;points=[];portConstraint=eastwest;" vertex="1" parent="KXzFWfe0HEiZLdzoKxse-57">
          <mxGeometry y="26" width="190" height="8" as="geometry" />
        </mxCell>
        <mxCell id="KXzFWfe0HEiZLdzoKxse-59" value="init()&#xa;forward()&#xa;get_input_key()&#xa;get_name()&#xa;get_default_parameters()&#xa;create_snapshot()&#xa;load_snapshot()&#xa;" style="text;align=left;verticalAlign=top;spacingLeft=4;spacingRight=4;overflow=hidden;rotatable=0;points=[[0,0.5],[1,0.5]];portConstraint=eastwest;" vertex="1" parent="KXzFWfe0HEiZLdzoKxse-57">
          <mxGeometry y="34" width="190" height="116" as="geometry" />
        </mxCell>
        <mxCell id="KXzFWfe0HEiZLdzoKxse-60" value="" style="endArrow=classic;html=1;rounded=0;fontColor=#009C00;exitX=0.5;exitY=0;exitDx=0;exitDy=0;" edge="1" parent="WIyWlLk6GJQsqaUBKTNV-1" source="KXzFWfe0HEiZLdzoKxse-54">
          <mxGeometry width="50" height="50" relative="1" as="geometry">
            <mxPoint x="370" y="1040" as="sourcePoint" />
            <mxPoint x="145" y="970" as="targetPoint" />
          </mxGeometry>
        </mxCell>
        <mxCell id="KXzFWfe0HEiZLdzoKxse-61" value="PytorchNetwork" style="swimlane;fontStyle=1;align=center;verticalAlign=top;childLayout=stackLayout;horizontal=1;startSize=26;horizontalStack=0;resizeParent=1;resizeLast=0;collapsible=1;marginBottom=0;rounded=1;shadow=1;strokeWidth=1;swimlaneFillColor=default;glass=1;" vertex="1" parent="WIyWlLk6GJQsqaUBKTNV-1">
          <mxGeometry x="50" y="1170" width="190" height="130" as="geometry">
            <mxRectangle x="220" y="120" width="160" height="26" as="alternateBounds" />
          </mxGeometry>
        </mxCell>
        <mxCell id="KXzFWfe0HEiZLdzoKxse-62" value="" style="line;html=1;strokeWidth=1;align=left;verticalAlign=middle;spacingTop=-1;spacingLeft=3;spacingRight=3;rotatable=0;labelPosition=right;points=[];portConstraint=eastwest;" vertex="1" parent="KXzFWfe0HEiZLdzoKxse-61">
          <mxGeometry y="26" width="190" height="8" as="geometry" />
        </mxCell>
        <mxCell id="KXzFWfe0HEiZLdzoKxse-72" value="get_net()&#xa;parameters()&#xa;train()&#xa;eval()&#xa;get_net_to_save()&#xa;post_backward_hook()&#xa;" style="text;align=left;verticalAlign=top;spacingLeft=4;spacingRight=4;overflow=hidden;rotatable=0;points=[[0,0.5],[1,0.5]];portConstraint=eastwest;" vertex="1" parent="KXzFWfe0HEiZLdzoKxse-61">
          <mxGeometry y="34" width="190" height="96" as="geometry" />
        </mxCell>
        <mxCell id="KXzFWfe0HEiZLdzoKxse-63" value="" style="endArrow=classic;html=1;rounded=0;fontColor=#009C00;exitX=0.5;exitY=0;exitDx=0;exitDy=0;" edge="1" parent="WIyWlLk6GJQsqaUBKTNV-1" source="KXzFWfe0HEiZLdzoKxse-61">
          <mxGeometry width="50" height="50" relative="1" as="geometry">
            <mxPoint x="370" y="1190" as="sourcePoint" />
            <mxPoint x="145" y="1120" as="targetPoint" />
          </mxGeometry>
        </mxCell>
        <mxCell id="KXzFWfe0HEiZLdzoKxse-64" value="PytorchNetworkWrapperBase" style="swimlane;fontStyle=1;align=center;verticalAlign=top;childLayout=stackLayout;horizontal=1;startSize=26;horizontalStack=0;resizeParent=1;resizeLast=0;collapsible=1;marginBottom=0;rounded=1;shadow=1;strokeWidth=1;swimlaneFillColor=default;glass=1;" vertex="1" parent="WIyWlLk6GJQsqaUBKTNV-1">
          <mxGeometry x="50" y="1350" width="190" height="120" as="geometry">
            <mxRectangle x="220" y="120" width="160" height="26" as="alternateBounds" />
          </mxGeometry>
        </mxCell>
        <mxCell id="KXzFWfe0HEiZLdzoKxse-65" value="" style="line;html=1;strokeWidth=1;align=left;verticalAlign=middle;spacingTop=-1;spacingLeft=3;spacingRight=3;rotatable=0;labelPosition=right;points=[];portConstraint=eastwest;" vertex="1" parent="KXzFWfe0HEiZLdzoKxse-64">
          <mxGeometry y="26" width="190" height="8" as="geometry" />
        </mxCell>
        <mxCell id="KXzFWfe0HEiZLdzoKxse-73" value="current_network()&#xa;set_frozen_layers()&#xa;set_batch_norm_freeze_method()&#xa;remove_wrappers_from_model()&#xa;get_nn_module()" style="text;align=left;verticalAlign=top;spacingLeft=4;spacingRight=4;overflow=hidden;rotatable=0;points=[[0,0.5],[1,0.5]];portConstraint=eastwest;" vertex="1" parent="KXzFWfe0HEiZLdzoKxse-64">
          <mxGeometry y="34" width="190" height="86" as="geometry" />
        </mxCell>
        <mxCell id="KXzFWfe0HEiZLdzoKxse-66" value="" style="endArrow=classic;html=1;rounded=0;fontColor=#009C00;exitX=0.5;exitY=0;exitDx=0;exitDy=0;" edge="1" parent="WIyWlLk6GJQsqaUBKTNV-1" source="KXzFWfe0HEiZLdzoKxse-64">
          <mxGeometry width="50" height="50" relative="1" as="geometry">
            <mxPoint x="370" y="1370" as="sourcePoint" />
            <mxPoint x="145" y="1300" as="targetPoint" />
          </mxGeometry>
        </mxCell>
        <mxCell id="KXzFWfe0HEiZLdzoKxse-67" value="MultiTaskNetworkWrapper" style="swimlane;fontStyle=1;align=center;verticalAlign=top;childLayout=stackLayout;horizontal=1;startSize=26;horizontalStack=0;resizeParent=1;resizeLast=0;collapsible=1;marginBottom=0;rounded=1;shadow=1;strokeWidth=1;swimlaneFillColor=default;glass=1;" vertex="1" parent="WIyWlLk6GJQsqaUBKTNV-1">
          <mxGeometry x="50" y="1520" width="190" height="100" as="geometry">
            <mxRectangle x="220" y="120" width="160" height="26" as="alternateBounds" />
          </mxGeometry>
        </mxCell>
        <mxCell id="KXzFWfe0HEiZLdzoKxse-68" value="" style="line;html=1;strokeWidth=1;align=left;verticalAlign=middle;spacingTop=-1;spacingLeft=3;spacingRight=3;rotatable=0;labelPosition=right;points=[];portConstraint=eastwest;" vertex="1" parent="KXzFWfe0HEiZLdzoKxse-67">
          <mxGeometry y="26" width="190" height="8" as="geometry" />
        </mxCell>
        <mxCell id="KXzFWfe0HEiZLdzoKxse-74" value="get_loss()" style="text;align=left;verticalAlign=top;spacingLeft=4;spacingRight=4;overflow=hidden;rotatable=0;points=[[0,0.5],[1,0.5]];portConstraint=eastwest;" vertex="1" parent="KXzFWfe0HEiZLdzoKxse-67">
          <mxGeometry y="34" width="190" height="26" as="geometry" />
        </mxCell>
        <mxCell id="KXzFWfe0HEiZLdzoKxse-69" value="" style="endArrow=classic;html=1;rounded=0;fontColor=#009C00;exitX=0.5;exitY=0;exitDx=0;exitDy=0;" edge="1" parent="WIyWlLk6GJQsqaUBKTNV-1" source="KXzFWfe0HEiZLdzoKxse-67">
          <mxGeometry width="50" height="50" relative="1" as="geometry">
            <mxPoint x="370" y="1540" as="sourcePoint" />
            <mxPoint x="145" y="1470" as="targetPoint" />
          </mxGeometry>
        </mxCell>
        <mxCell id="KXzFWfe0HEiZLdzoKxse-75" value="MultiTaskDDPNetworkWrapper" style="swimlane;fontStyle=1;align=center;verticalAlign=top;childLayout=stackLayout;horizontal=1;startSize=26;horizontalStack=0;resizeParent=1;resizeLast=0;collapsible=1;marginBottom=0;rounded=1;shadow=1;strokeWidth=1;swimlaneFillColor=default;glass=1;" vertex="1" parent="WIyWlLk6GJQsqaUBKTNV-1">
          <mxGeometry x="50" y="1670" width="190" height="100" as="geometry">
            <mxRectangle x="220" y="120" width="160" height="26" as="alternateBounds" />
          </mxGeometry>
        </mxCell>
        <mxCell id="KXzFWfe0HEiZLdzoKxse-76" value="" style="line;html=1;strokeWidth=1;align=left;verticalAlign=middle;spacingTop=-1;spacingLeft=3;spacingRight=3;rotatable=0;labelPosition=right;points=[];portConstraint=eastwest;" vertex="1" parent="KXzFWfe0HEiZLdzoKxse-75">
          <mxGeometry y="26" width="190" height="8" as="geometry" />
        </mxCell>
        <mxCell id="KXzFWfe0HEiZLdzoKxse-78" value="" style="endArrow=classic;html=1;rounded=0;fontColor=#009C00;exitX=0.5;exitY=0;exitDx=0;exitDy=0;" edge="1" parent="WIyWlLk6GJQsqaUBKTNV-1" source="KXzFWfe0HEiZLdzoKxse-75">
          <mxGeometry width="50" height="50" relative="1" as="geometry">
            <mxPoint x="370" y="1690" as="sourcePoint" />
            <mxPoint x="145" y="1620" as="targetPoint" />
          </mxGeometry>
        </mxCell>
        <mxCell id="KXzFWfe0HEiZLdzoKxse-79" value="SSLFlowCreator" style="swimlane;fontStyle=1;align=center;verticalAlign=top;childLayout=stackLayout;horizontal=1;startSize=26;horizontalStack=0;resizeParent=1;resizeLast=0;collapsible=1;marginBottom=0;rounded=1;shadow=1;strokeWidth=1;swimlaneFillColor=default;glass=1;fillColor=#d5e8d4;strokeColor=#82b366;" vertex="1" parent="WIyWlLk6GJQsqaUBKTNV-1">
          <mxGeometry x="360" y="1670" width="190" height="100" as="geometry">
            <mxRectangle x="220" y="120" width="160" height="26" as="alternateBounds" />
          </mxGeometry>
        </mxCell>
        <mxCell id="KXzFWfe0HEiZLdzoKxse-80" value="" style="line;html=1;strokeWidth=1;align=left;verticalAlign=middle;spacingTop=-1;spacingLeft=3;spacingRight=3;rotatable=0;labelPosition=right;points=[];portConstraint=eastwest;" vertex="1" parent="KXzFWfe0HEiZLdzoKxse-79">
          <mxGeometry y="26" width="190" height="8" as="geometry" />
        </mxCell>
        <mxCell id="KXzFWfe0HEiZLdzoKxse-81" value="create_flow()" style="text;align=left;verticalAlign=top;spacingLeft=4;spacingRight=4;overflow=hidden;rotatable=0;points=[[0,0.5],[1,0.5]];portConstraint=eastwest;" vertex="1" parent="KXzFWfe0HEiZLdzoKxse-79">
          <mxGeometry y="34" width="190" height="26" as="geometry" />
        </mxCell>
        <mxCell id="KXzFWfe0HEiZLdzoKxse-82" value="" style="endArrow=classic;html=1;rounded=0;" edge="1" parent="WIyWlLk6GJQsqaUBKTNV-1">
          <mxGeometry x="-1" y="-166" width="50" height="50" relative="1" as="geometry">
            <mxPoint x="455" y="1620" as="sourcePoint" />
            <mxPoint x="455" y="1670" as="targetPoint" />
            <mxPoint x="26" y="-90" as="offset" />
          </mxGeometry>
        </mxCell>
        <mxCell id="KXzFWfe0HEiZLdzoKxse-83" value="" style="endArrow=classic;html=1;rounded=0;fontColor=#009C00;exitX=1.001;exitY=0.769;exitDx=0;exitDy=0;exitPerimeter=0;entryX=-0.003;entryY=0.8;entryDx=0;entryDy=0;entryPerimeter=0;" edge="1" parent="WIyWlLk6GJQsqaUBKTNV-1" source="KXzFWfe0HEiZLdzoKxse-74">
          <mxGeometry width="50" height="50" relative="1" as="geometry">
            <mxPoint x="340" y="1710" as="sourcePoint" />
            <mxPoint x="359.42999999999984" y="1574.8000000000002" as="targetPoint" />
          </mxGeometry>
        </mxCell>
        <mxCell id="KXzFWfe0HEiZLdzoKxse-85" value="ModuleRepository" style="swimlane;fontStyle=1;align=center;verticalAlign=top;childLayout=stackLayout;horizontal=1;startSize=26;horizontalStack=0;resizeParent=1;resizeLast=0;collapsible=1;marginBottom=0;rounded=1;shadow=1;strokeWidth=1;swimlaneFillColor=default;glass=1;" vertex="1" parent="WIyWlLk6GJQsqaUBKTNV-1">
          <mxGeometry x="360" y="1820" width="190" height="110" as="geometry">
            <mxRectangle x="130" y="380" width="160" height="26" as="alternateBounds" />
          </mxGeometry>
        </mxCell>
        <mxCell id="KXzFWfe0HEiZLdzoKxse-86" value="get_module()" style="text;align=left;verticalAlign=top;spacingLeft=4;spacingRight=4;overflow=hidden;rotatable=0;points=[[0,0.5],[1,0.5]];portConstraint=eastwest;fontSize=11;" vertex="1" parent="KXzFWfe0HEiZLdzoKxse-85">
          <mxGeometry y="26" width="190" height="64" as="geometry" />
        </mxCell>
        <mxCell id="KXzFWfe0HEiZLdzoKxse-87" value="FlowType = &lt;font color=&quot;#009c00&quot;&gt;SSL_PRETRAIN_FLOW&lt;/font&gt;" style="text;whiteSpace=wrap;html=1;" vertex="1" parent="WIyWlLk6GJQsqaUBKTNV-1">
          <mxGeometry x="460" y="1780" width="160" height="40" as="geometry" />
        </mxCell>
        <mxCell id="KXzFWfe0HEiZLdzoKxse-89" value="SSLPretrainFlow" style="swimlane;fontStyle=1;align=center;verticalAlign=top;childLayout=stackLayout;horizontal=1;startSize=26;horizontalStack=0;resizeParent=1;resizeLast=0;collapsible=1;marginBottom=0;rounded=1;shadow=1;strokeWidth=1;swimlaneFillColor=default;glass=1;fillColor=#d5e8d4;strokeColor=#82b366;" vertex="1" parent="WIyWlLk6GJQsqaUBKTNV-1">
          <mxGeometry x="360" y="2110" width="190" height="100" as="geometry">
            <mxRectangle x="220" y="120" width="160" height="26" as="alternateBounds" />
          </mxGeometry>
        </mxCell>
        <mxCell id="KXzFWfe0HEiZLdzoKxse-90" value="" style="line;html=1;strokeWidth=1;align=left;verticalAlign=middle;spacingTop=-1;spacingLeft=3;spacingRight=3;rotatable=0;labelPosition=right;points=[];portConstraint=eastwest;" vertex="1" parent="KXzFWfe0HEiZLdzoKxse-89">
          <mxGeometry y="26" width="190" height="8" as="geometry" />
        </mxCell>
        <mxCell id="KXzFWfe0HEiZLdzoKxse-96" value="get_encoder()&#xa;pre_forward()&#xa;forward()&#xa;post_forward()" style="text;align=left;verticalAlign=top;spacingLeft=4;spacingRight=4;overflow=hidden;rotatable=0;points=[[0,0.5],[1,0.5]];portConstraint=eastwest;" vertex="1" parent="KXzFWfe0HEiZLdzoKxse-89">
          <mxGeometry y="34" width="190" height="66" as="geometry" />
        </mxCell>
        <mxCell id="KXzFWfe0HEiZLdzoKxse-91" value="SSLPretrainFlowFactory" style="swimlane;fontStyle=1;align=center;verticalAlign=top;childLayout=stackLayout;horizontal=1;startSize=26;horizontalStack=0;resizeParent=1;resizeLast=0;collapsible=1;marginBottom=0;rounded=1;shadow=1;strokeWidth=1;swimlaneFillColor=default;glass=1;fillColor=#d5e8d4;strokeColor=#82b366;" vertex="1" parent="WIyWlLk6GJQsqaUBKTNV-1">
          <mxGeometry x="360" y="1970" width="190" height="100" as="geometry">
            <mxRectangle x="220" y="120" width="160" height="26" as="alternateBounds" />
          </mxGeometry>
        </mxCell>
        <mxCell id="KXzFWfe0HEiZLdzoKxse-92" value="" style="line;html=1;strokeWidth=1;align=left;verticalAlign=middle;spacingTop=-1;spacingLeft=3;spacingRight=3;rotatable=0;labelPosition=right;points=[];portConstraint=eastwest;" vertex="1" parent="KXzFWfe0HEiZLdzoKxse-91">
          <mxGeometry y="26" width="190" height="8" as="geometry" />
        </mxCell>
        <mxCell id="KXzFWfe0HEiZLdzoKxse-93" value="create()" style="text;align=left;verticalAlign=top;spacingLeft=4;spacingRight=4;overflow=hidden;rotatable=0;points=[[0,0.5],[1,0.5]];portConstraint=eastwest;" vertex="1" parent="KXzFWfe0HEiZLdzoKxse-91">
          <mxGeometry y="34" width="190" height="26" as="geometry" />
        </mxCell>
        <mxCell id="KXzFWfe0HEiZLdzoKxse-98" value="&lt;b style=&quot;&quot;&gt;&lt;font color=&quot;#009c00&quot;&gt;SSL Detector Flow&lt;/font&gt;&lt;/b&gt;" style="text;whiteSpace=wrap;html=1;" vertex="1" parent="WIyWlLk6GJQsqaUBKTNV-1">
          <mxGeometry x="400" y="2250" width="160" height="40" as="geometry" />
        </mxCell>
        <mxCell id="KXzFWfe0HEiZLdzoKxse-100" value="" style="endArrow=classic;html=1;rounded=0;exitX=0.5;exitY=1;exitDx=0;exitDy=0;entryX=0.5;entryY=0;entryDx=0;entryDy=0;" edge="1" parent="WIyWlLk6GJQsqaUBKTNV-1" source="KXzFWfe0HEiZLdzoKxse-79" target="KXzFWfe0HEiZLdzoKxse-85">
          <mxGeometry x="-1" y="-166" width="50" height="50" relative="1" as="geometry">
            <mxPoint x="465" y="1630" as="sourcePoint" />
            <mxPoint x="465" y="1680" as="targetPoint" />
            <mxPoint x="26" y="-90" as="offset" />
          </mxGeometry>
        </mxCell>
        <mxCell id="KXzFWfe0HEiZLdzoKxse-104" value="" style="endArrow=classic;html=1;rounded=0;fontColor=#0f16d7;exitX=0.5;exitY=1;exitDx=0;exitDy=0;" edge="1" parent="WIyWlLk6GJQsqaUBKTNV-1" source="KXzFWfe0HEiZLdzoKxse-85">
          <mxGeometry width="50" height="50" relative="1" as="geometry">
            <mxPoint x="454.6000000000001" y="1940" as="sourcePoint" />
            <mxPoint x="454.7" y="1970" as="targetPoint" />
            <Array as="points">
              <mxPoint x="454.7" y="1970" />
            </Array>
          </mxGeometry>
        </mxCell>
        <mxCell id="KXzFWfe0HEiZLdzoKxse-106" value="&lt;font color=&quot;#050505&quot;&gt;MODULE_TYPE_TO_FACTORY&lt;/font&gt;" style="text;whiteSpace=wrap;html=1;fontSize=11;fontColor=#578b23;" vertex="1" parent="WIyWlLk6GJQsqaUBKTNV-1">
          <mxGeometry x="460" y="1940" width="190" height="40" as="geometry" />
        </mxCell>
        <mxCell id="KXzFWfe0HEiZLdzoKxse-107" value="" style="endArrow=classic;html=1;rounded=0;fontColor=#0f16d7;exitX=0.5;exitY=1;exitDx=0;exitDy=0;" edge="1" parent="WIyWlLk6GJQsqaUBKTNV-1">
          <mxGeometry width="50" height="50" relative="1" as="geometry">
            <mxPoint x="455" y="2070" as="sourcePoint" />
            <mxPoint x="454.70000000000005" y="2110" as="targetPoint" />
            <Array as="points">
              <mxPoint x="454.7" y="2110" />
            </Array>
          </mxGeometry>
        </mxCell>
        <mxCell id="KXzFWfe0HEiZLdzoKxse-110" value="" style="endArrow=classic;html=1;rounded=0;fontColor=#0f16d7;exitX=0.5;exitY=1;exitDx=0;exitDy=0;" edge="1" parent="WIyWlLk6GJQsqaUBKTNV-1">
          <mxGeometry width="50" height="50" relative="1" as="geometry">
            <mxPoint x="455" y="2210" as="sourcePoint" />
            <mxPoint x="454.70000000000005" y="2250" as="targetPoint" />
            <Array as="points">
              <mxPoint x="454.7" y="2250" />
            </Array>
          </mxGeometry>
        </mxCell>
        <mxCell id="KXzFWfe0HEiZLdzoKxse-130" value="ModuleRepository" style="swimlane;fontStyle=1;align=center;verticalAlign=top;childLayout=stackLayout;horizontal=1;startSize=26;horizontalStack=0;resizeParent=1;resizeLast=0;collapsible=1;marginBottom=0;rounded=1;shadow=1;strokeWidth=1;swimlaneFillColor=default;glass=1;" vertex="1" parent="WIyWlLk6GJQsqaUBKTNV-1">
          <mxGeometry x="100" y="100" width="190" height="110" as="geometry">
            <mxRectangle x="130" y="380" width="160" height="26" as="alternateBounds" />
          </mxGeometry>
        </mxCell>
        <mxCell id="KXzFWfe0HEiZLdzoKxse-131" value="get_module()" style="text;align=left;verticalAlign=top;spacingLeft=4;spacingRight=4;overflow=hidden;rotatable=0;points=[[0,0.5],[1,0.5]];portConstraint=eastwest;fontSize=11;" vertex="1" parent="KXzFWfe0HEiZLdzoKxse-130">
          <mxGeometry y="26" width="190" height="64" as="geometry" />
        </mxCell>
        <mxCell id="KXzFWfe0HEiZLdzoKxse-132" value="FlowType = &lt;font color=&quot;#009c00&quot;&gt;SSL_PRETRAIN_FLOW&lt;/font&gt;" style="text;whiteSpace=wrap;html=1;" vertex="1" parent="WIyWlLk6GJQsqaUBKTNV-1">
          <mxGeometry x="200" y="50" width="160" height="40" as="geometry" />
        </mxCell>
        <mxCell id="KXzFWfe0HEiZLdzoKxse-133" value="SSLPretrainFlow" style="swimlane;fontStyle=1;align=center;verticalAlign=top;childLayout=stackLayout;horizontal=1;startSize=26;horizontalStack=0;resizeParent=1;resizeLast=0;collapsible=1;marginBottom=0;rounded=1;shadow=1;strokeWidth=1;swimlaneFillColor=default;glass=1;fillColor=#d5e8d4;strokeColor=#82b366;" vertex="1" parent="WIyWlLk6GJQsqaUBKTNV-1">
          <mxGeometry x="100" y="390" width="190" height="100" as="geometry">
            <mxRectangle x="220" y="120" width="160" height="26" as="alternateBounds" />
          </mxGeometry>
        </mxCell>
        <mxCell id="KXzFWfe0HEiZLdzoKxse-134" value="" style="line;html=1;strokeWidth=1;align=left;verticalAlign=middle;spacingTop=-1;spacingLeft=3;spacingRight=3;rotatable=0;labelPosition=right;points=[];portConstraint=eastwest;" vertex="1" parent="KXzFWfe0HEiZLdzoKxse-133">
          <mxGeometry y="26" width="190" height="8" as="geometry" />
        </mxCell>
        <mxCell id="KXzFWfe0HEiZLdzoKxse-135" value="get_encoder()&#xa;pre_forward()&#xa;forward()&#xa;post_forward()" style="text;align=left;verticalAlign=top;spacingLeft=4;spacingRight=4;overflow=hidden;rotatable=0;points=[[0,0.5],[1,0.5]];portConstraint=eastwest;" vertex="1" parent="KXzFWfe0HEiZLdzoKxse-133">
          <mxGeometry y="34" width="190" height="66" as="geometry" />
        </mxCell>
        <mxCell id="KXzFWfe0HEiZLdzoKxse-136" value="SSLPretrainFlowFactory" style="swimlane;fontStyle=1;align=center;verticalAlign=top;childLayout=stackLayout;horizontal=1;startSize=26;horizontalStack=0;resizeParent=1;resizeLast=0;collapsible=1;marginBottom=0;rounded=1;shadow=1;strokeWidth=1;swimlaneFillColor=default;glass=1;fillColor=#d5e8d4;strokeColor=#82b366;" vertex="1" parent="WIyWlLk6GJQsqaUBKTNV-1">
          <mxGeometry x="100" y="250" width="190" height="100" as="geometry">
            <mxRectangle x="220" y="120" width="160" height="26" as="alternateBounds" />
          </mxGeometry>
        </mxCell>
        <mxCell id="KXzFWfe0HEiZLdzoKxse-137" value="" style="line;html=1;strokeWidth=1;align=left;verticalAlign=middle;spacingTop=-1;spacingLeft=3;spacingRight=3;rotatable=0;labelPosition=right;points=[];portConstraint=eastwest;" vertex="1" parent="KXzFWfe0HEiZLdzoKxse-136">
          <mxGeometry y="26" width="190" height="8" as="geometry" />
        </mxCell>
        <mxCell id="KXzFWfe0HEiZLdzoKxse-138" value="create()" style="text;align=left;verticalAlign=top;spacingLeft=4;spacingRight=4;overflow=hidden;rotatable=0;points=[[0,0.5],[1,0.5]];portConstraint=eastwest;" vertex="1" parent="KXzFWfe0HEiZLdzoKxse-136">
          <mxGeometry y="34" width="190" height="26" as="geometry" />
        </mxCell>
        <mxCell id="KXzFWfe0HEiZLdzoKxse-139" value="&lt;b style=&quot;&quot;&gt;&lt;font color=&quot;#009c00&quot;&gt;SSL Detector Flow&lt;/font&gt;&lt;/b&gt;" style="text;whiteSpace=wrap;html=1;" vertex="1" parent="WIyWlLk6GJQsqaUBKTNV-1">
          <mxGeometry x="140" y="530" width="160" height="40" as="geometry" />
        </mxCell>
        <mxCell id="KXzFWfe0HEiZLdzoKxse-140" value="" style="endArrow=classic;html=1;rounded=0;exitX=0.5;exitY=1;exitDx=0;exitDy=0;entryX=0.5;entryY=0;entryDx=0;entryDy=0;" edge="1" parent="WIyWlLk6GJQsqaUBKTNV-1" target="KXzFWfe0HEiZLdzoKxse-130">
          <mxGeometry x="-1" y="-166" width="50" height="50" relative="1" as="geometry">
            <mxPoint x="195" y="50" as="sourcePoint" />
            <mxPoint x="205" y="-40" as="targetPoint" />
            <mxPoint x="26" y="-90" as="offset" />
          </mxGeometry>
        </mxCell>
        <mxCell id="KXzFWfe0HEiZLdzoKxse-141" value="" style="endArrow=classic;html=1;rounded=0;fontColor=#0f16d7;exitX=0.5;exitY=1;exitDx=0;exitDy=0;" edge="1" parent="WIyWlLk6GJQsqaUBKTNV-1" source="KXzFWfe0HEiZLdzoKxse-130">
          <mxGeometry width="50" height="50" relative="1" as="geometry">
            <mxPoint x="194.60000000000008" y="220" as="sourcePoint" />
            <mxPoint x="194.70000000000005" y="250" as="targetPoint" />
            <Array as="points">
              <mxPoint x="194.7" y="250" />
            </Array>
          </mxGeometry>
        </mxCell>
        <mxCell id="KXzFWfe0HEiZLdzoKxse-142" value="&lt;font color=&quot;#050505&quot;&gt;MODULE_TYPE_TO_FACTORY&lt;/font&gt;" style="text;whiteSpace=wrap;html=1;fontSize=11;fontColor=#578b23;" vertex="1" parent="WIyWlLk6GJQsqaUBKTNV-1">
          <mxGeometry x="200" y="220" width="190" height="40" as="geometry" />
        </mxCell>
        <mxCell id="KXzFWfe0HEiZLdzoKxse-143" value="" style="endArrow=classic;html=1;rounded=0;fontColor=#0f16d7;exitX=0.5;exitY=1;exitDx=0;exitDy=0;" edge="1" parent="WIyWlLk6GJQsqaUBKTNV-1">
          <mxGeometry width="50" height="50" relative="1" as="geometry">
            <mxPoint x="195" y="350" as="sourcePoint" />
            <mxPoint x="194.70000000000005" y="390" as="targetPoint" />
            <Array as="points">
              <mxPoint x="194.7" y="390" />
            </Array>
          </mxGeometry>
        </mxCell>
        <mxCell id="KXzFWfe0HEiZLdzoKxse-144" value="" style="endArrow=classic;html=1;rounded=0;fontColor=#0f16d7;exitX=0.5;exitY=1;exitDx=0;exitDy=0;" edge="1" parent="WIyWlLk6GJQsqaUBKTNV-1">
          <mxGeometry width="50" height="50" relative="1" as="geometry">
            <mxPoint x="195" y="490" as="sourcePoint" />
            <mxPoint x="194.70000000000005" y="530" as="targetPoint" />
            <Array as="points">
              <mxPoint x="194.7" y="530" />
            </Array>
          </mxGeometry>
        </mxCell>
      </root>
    </mxGraphModel>
  </diagram>
</mxfile>
